  0
SECTION
  2
HEADER
  9
$ACADVER
  1
AC1009
  9
$INSBASE
 10
0
 20
0
 30
0
  9
$EXTMIN
 10
0
 20
0
  9
$EXTMAX
 10
841
 20
594
  9
$LIMMIN
 10
0
 20
0
  9
$LIMMAX
 10
841
 20
594
  9
$LTSCALE
 40
1
  0
ENDSEC
  0
SECTION
  2
TABLES
  0
TABLE
  2
LTYPE
 70
     9
  0
LTYPE
  2
CONTINUOUS
 70
    64
  3
実線
 72
    65
 73
     0
 40
0.0
  0
LTYPE
  2
DASHED1
 70
    64
  3
--  --  --  --  --  --  --  --  
 72
    65
 73
     2
 40
2.5
 49
1.25
 49
-1.25
  0
LTYPE
  2
DASHED2
 70
    64
  3
----    ----    ----    ----    
 72
    65
 73
     2
 40
5.0
 49
2.5
 49
-2.5
  0
LTYPE
  2
DASHED3
 70
    64
  3
------  ------  ------  ------  
 72
    65
 73
     2
 40
5.0
 49
3.75
 49
-1.25
  0
LTYPE
  2
CENTER1
 70
    64
  3
----- - ----- - ----- - ----- - 
 72
    65
 73
     4
 40
10.0
 49
6.25
 49
-1.25
 49
1.25
 49
-1.25
  0
LTYPE
  2
CENTER2
 70
    64
  3
----------  --  ----------  --  
 72
    65
 73
     4
 40
20.0
 49
12.5
 49
-2.5
 49
2.5
 49
-2.5
  0
LTYPE
  2
PHANTOM1
 70
    64
  3
--- - - --- - - --- - - --- - - 
 72
    65
 73
     6
 40
10.0
 49
3.25
 49
-1.25
 49
1.25
 49
-1.25
 49
1.25
 49
-1.25
  0
LTYPE
  2
PHANTOM2
 70
    64
  3
--------  -  -  --------  -  -  
 72
    65
 73
     6
 40
20.0
 49
10.0
 49
-2.5
 49
1.25
 49
-2.5
 49
1.25
 49
-2.5
  0
LTYPE
  2
DOT
 70
    64
  3
-   -   -   -   -   -   -   -   
 72
    65
 73
     2
 40
2.5
 49
0.625
 49
-1.875
  0
LTYPE
  2
DUMMY
 70
    64
  3
ダミー
 72
    65
 73
     0
 40
0.0
  0
LTYPE
  2
RAND1
 70
    64
  3
ランダム線1
 72
    65
 73
     4
 40
10.0
 49
1.0
 49
-2.0
 49
3.0
 49
-4.0
  0
LTYPE
  2
RAND2
 70
    64
  3
ランダム線2
 72
    65
 73
     4
 40
14.0
 49
2.0
 49
-3.0
 49
4.0
 49
-5.0
  0
LTYPE
  2
RAND3
 70
    64
  3
ランダム線3
 72
    65
 73
     4
 40
18.0
 49
3.0
 49
-4.0
 49
5.0
 49
-6.0
  0
LTYPE
  2
RAND4
 70
    64
  3
ランダム線4
 72
    65
 73
     4
 40
22.0
 49
4.0
 49
-5.0
 49
6.0
 49
-7.0
  0
LTYPE
  2
RAND5
 70
    64
  3
ランダム線5
 72
    65
 73
     4
 40
26.0
 49
5.0
 49
-6.0
 49
7.0
 49
-8.0
  0
LTYPE
  2
LONG1
 70
    64
  3
----------  --  ----------  --  
 72
    65
 73
     4
 40
40.0
 49
32.5
 49
-2.5
 49
2.5
 49
-2.5
  0
LTYPE
  2
LONG2
 70
    64
  3
--------  -  -  --------  -  -  
 72
    65
 73
     6
 40
40.0
 49
30.0
 49
-2.5
 49
1.25
 49
-2.5
 49
1.25
 49
-2.5
  0
LTYPE
  2
LONG3
 70
    64
  3
+++++++++++++++..+++++++++++++++
 72
    65
 73
     2
 40
40.0
 49
37.5
 49
-2.5
  0
LTYPE
  2
LONG4
 70
    64
  3
+++++++++++++++..+++++++++++++++
 72
    65
 73
     2
 40
80.0
 49
75.0
 49
-5.0
  0
LTYPE
  2
LONG5
 70
    64
  3
----------  --  ----------  --  
 72
    65
 73
     4
 40
60.0
 49
37.5
 49
-7.5
 49
7.5
 49
-7.5
  0
LTYPE
  2
dashed
 70
   64
  3
-------   -------------   ------
 72
   65
 73
    2
 40
7.5
 49
6
 49
-1.5
  0
LTYPE
  2
dashed_spaced
 70
   64
  3
----        --------        ----
 72
   65
 73
    2
 40
12
 49
6
 49
-6
  0
LTYPE
  2
long_dashed_dotted
 70
   64
  3
------------- --- --------------
 72
   65
 73
    4
 40
15.25
 49
12
 49
-1.5
 49
0.25
 49
-1.5
  0
LTYPE
  2
long_dashed_double-dotted
 70
   64
  3
----------- --- --- ------------
 72
   65
 73
    6
 40
17
 49
12
 49
-1.5
 49
0.25
 49
-1.5
 49
0.25
 49
-1.5
  0
LTYPE
  2
long_dashed_triplicate-dotted
 70
   64
  3
--------- --- --- --- ----------
 72
   65
 73
    8
 40
18.75
 49
12
 49
-1.5
 49
0.25
 49
-1.5
 49
0.25
 49
-1.5
 49
0.25
 49
-1.5
  0
LTYPE
  2
dotted
 70
   64
  3
   -       -       -       -    
 72
   65
 73
    2
 40
1.75
 49
0.25
 49
-1.5
  0
LTYPE
  2
chain
 70
   64
  3
-------------- -- --------------
 72
   65
 73
    4
 40
18.5
 49
12
 49
-1.5
 49
3.5
 49
-1.5
  0
LTYPE
  2
chain_double_dash
 70
   64
  3
------------ -- -- -------------
 72
   65
 73
    6
 40
23.5
 49
12
 49
-1.5
 49
3.5
 49
-1.5
 49
3.5
 49
-1.5
  0
LTYPE
  2
dashed_dotted
 70
   64
  3
-----------     -     ----------
 72
   65
 73
    4
 40
9.25
 49
6
 49
-1.5
 49
0.25
 49
-1.5
  0
LTYPE
  2
double-dashed_dotted
 70
   64
  3
------   -----------   -   -----
 72
   65
 73
    6
 40
16.75
 49
6
 49
-1.5
 49
6
 49
-1.5
 49
0.25
 49
-1.5
  0
LTYPE
  2
dashed_double-dotted
 70
   64
  3
---------    -    -    ---------
 72
   65
 73
    6
 40
11
 49
6
 49
-1.5
 49
0.25
 49
-1.5
 49
0.25
 49
-1.5
  0
LTYPE
  2
double-dashed_double-dotted
 70
   64
  3
-----   ---------   -   -   ----
 72
   65
 73
    8
 40
18.5
 49
6
 49
-1.5
 49
6
 49
-1.5
 49
0.25
 49
-1.5
 49
0.25
 49
-1.5
  0
LTYPE
  2
dashed_triplicate-dotted
 70
   64
  3
-------    -    -    -    ------
 72
   65
 73
    8
 40
12.75
 49
6
 49
-1.5
 49
0.25
 49
-1.5
 49
0.25
 49
-1.5
 49
0.25
 49
-1.5
  0
LTYPE
  2
double-dashed_triplicate-dotted
 70
   64
  3
-----  ---------  -  -  -  -----
 72
   65
 73
   10
 40
20.25
 49
6
 49
-1.5
 49
6
 49
-1.5
 49
0.25
 49
-1.5
 49
0.25
 49
-1.5
 49
0.25
 49
-1.5
  0
LTYPE
  2
undefined
 70
   64
  3
--------------------------------
 72
   65
 73
    0
 40
0
  0
LTYPE
  2
_
 70
   64
  3
                                
 72
   65
 73
    0
 40
0
  0
LTYPE
  2
__18
 70
   64
  3
                                
 72
   65
 73
    0
 40
0
  0
LTYPE
  2
__19
 70
   64
  3
                                
 72
   65
 73
    0
 40
0
  0
LTYPE
  2
__20
 70
   64
  3
                                
 72
   65
 73
    0
 40
0
  0
LTYPE
  2
__21
 70
   64
  3
                                
 72
   65
 73
    0
 40
0
  0
LTYPE
  2
__22
 70
   64
  3
                                
 72
   65
 73
    0
 40
0
  0
LTYPE
  2
__23
 70
   64
  3
                                
 72
   65
 73
    0
 40
0
  0
LTYPE
  2
__24
 70
   64
  3
                                
 72
   65
 73
    0
 40
0
  0
LTYPE
  2
__25
 70
   64
  3
                                
 72
   65
 73
    0
 40
0
  0
LTYPE
  2
__26
 70
   64
  3
                                
 72
   65
 73
    0
 40
0
  0
LTYPE
  2
__27
 70
   64
  3
                                
 72
   65
 73
    0
 40
0
  0
LTYPE
  2
__28
 70
   64
  3
                                
 72
   65
 73
    0
 40
0
  0
LTYPE
  2
__29
 70
   64
  3
                                
 72
   65
 73
    0
 40
0
  0
LTYPE
  2
__30
 70
   64
  3
                                
 72
   65
 73
    0
 40
0
  0
LTYPE
  2
__31
 70
   64
  3
                                
 72
   65
 73
    0
 40
0
  0
LTYPE
  2
__32
 70
   64
  3
                                
 72
   65
 73
    0
 40
0
  0
ENDTAB
  0
TABLE
  2
STYLE
  5
3
100
AcDbSymbolTable
 70
     1
  0
STYLE
  5
10
100
AcDbSymbolTableRecord
100
AcDbTextStyleTableRecord
  2
STANDARD
 70
     0
 40
0.0
 41
1.0
 50
0.0
 71
     0
 42
0.2
  3
txt
  4
bigfont.shx
  0
STYLE
  5
26
100
AcDbSymbolTableRecord
100
AcDbTextStyleTableRecord
  2
TATEGAKI
 70
    68
 40
0.0
 41
1.0
 50
0.0
 71
     0
 42
1.0
  3
txt
  4
bigfont.shx
  0
ENDTAB
  0
TABLE
  2
LAYER
 70
    4
  0
LAYER
  2
_0-0_
 70
   64
 62
    7
  6
CONTINUOUS
  0
LAYER
  2
_0-1_
 70
   64
 62
    7
  6
CONTINUOUS
  0
LAYER
  2
_0-2_
 70
   64
 62
    7
  6
CONTINUOUS
  0
LAYER
  2
ADD_LINE
 70
   64
 62
    7
  6
CONTINUOUS
  0
ENDTAB
  0
ENDSEC
  0
SECTION
  2
BLOCKS
  0
ENDSEC
  0
SECTION
  2
ENTITIES
  0
LINE
  8
_0-1_
  6
CONTINUOUS
 62
    7
 10
348.22000000000003
 20
188.24000000000001
 11
346.84000000000003
 21
188.24000000000001
  0
LINE
  8
_0-1_
  6
CONTINUOUS
 62
    7
 10
331.60000000000002
 20
204.28999999999999
 11
329.06
 21
206.82999999999998
  0
LINE
  8
_0-1_
  6
CONTINUOUS
 62
    7
 10
325.25
 20
189.05000000000001
 11
326.51999999999998
 21
189.05000000000001
  0
LINE
  8
_0-1_
  6
CONTINUOUS
 62
    7
 10
326.51999999999998
 20
191.59
 11
325.25
 21
191.59
  0
LINE
  8
_0-1_
  6
CONTINUOUS
 62
    7
 10
326.51999999999998
 20
194.13
 11
325.25
 21
194.13
  0
LINE
  8
_0-1_
  6
CONTINUOUS
 62
    7
 10
326.51999999999998
 20
196.67000000000002
 11
325.25
 21
196.67000000000002
  0
LINE
  8
_0-1_
  6
CONTINUOUS
 62
    7
 10
326.51999999999998
 20
199.20999999999998
 11
325.25
 21
199.20999999999998
  0
LINE
  8
_0-1_
  6
CONTINUOUS
 62
    7
 10
325.25
 20
204.28999999999999
 11
326.51999999999998
 21
204.28999999999999
  0
LINE
  8
_0-1_
  6
CONTINUOUS
 62
    7
 10
326.51999999999998
 20
201.75
 11
325.25
 21
201.75
  0
LINE
  8
_0-0_
  6
CONTINUOUS
 62
    7
 10
327.78999999999996
 20
193.495
 11
326.51999999999998
 21
195.40000000000001
  0
LINE
  8
_0-0_
  6
CONTINUOUS
 62
    7
 10
326.51999999999998
 20
185.24000000000001
 11
329.06
 21
185.24000000000001
  0
LINE
  8
_0-0_
  6
CONTINUOUS
 62
    7
 10
330.30500000000001
 20
185.995
 11
329.06
 21
185.24000000000001
  0
LINE
  8
_0-0_
  6
CONTINUOUS
 62
    7
 10
330.30500000000001
 20
187.495
 11
329.06
 21
187.78
  0
LINE
  8
_0-0_
  6
CONTINUOUS
 62
    7
 10
329.06
 20
187.78
 11
326.51999999999998
 21
187.78
  0
LINE
  8
_0-0_
  6
CONTINUOUS
 62
    7
 10
330.30500000000001
 20
191.995
 11
327.78999999999996
 21
193.495
  0
LINE
  8
_0-0_
  6
CONTINUOUS
 62
    7
 10
330.32999999999998
 20
197.94
 11
330.32999999999998
 21
203.655
  0
LINE
  8
_0-0_
  6
CONTINUOUS
 62
    7
 10
330.32999999999998
 20
203.655
 11
328.42500000000001
 21
205.56
  0
LINE
  8
_0-0_
  6
CONTINUOUS
 62
    7
 10
328.42500000000001
 20
205.56
 11
326.51999999999998
 21
205.56
  0
LINE
  8
_0-0_
  6
CONTINUOUS
 62
    7
 10
326.51999999999998
 20
203.01999999999998
 11
327.78999999999996
 21
203.01999999999998
  0
LINE
  8
_0-0_
  6
CONTINUOUS
 62
    7
 10
327.78999999999996
 20
203.01999999999998
 11
329.06
 21
201.75
  0
LINE
  8
_0-0_
  6
CONTINUOUS
 62
    7
 10
329.06
 20
201.75
 11
329.06
 21
197.94
  0
LINE
  8
_0-0_
  6
CONTINUOUS
 62
    7
 10
330.30500000000001
 20
194.995
 11
327.78999999999996
 21
197.30500000000001
  0
LINE
  8
_0-0_
  6
CONTINUOUS
 62
    7
 10
327.78999999999996
 20
197.30500000000001
 11
327.78999999999996
 21
197.94
  0
LINE
  8
_0-0_
  6
CONTINUOUS
 62
    7
 10
329.06
 20
197.94
 11
330.30500000000001
 21
196.495
  0
LINE
  8
_0-0_
  6
CONTINUOUS
 62
    7
 10
326.51999999999998
 20
200.48000000000002
 11
327.78999999999996
 21
199.20999999999998
  0
LINE
  8
_0-0_
  6
CONTINUOUS
 62
    7
 10
327.78999999999996
 20
199.20999999999998
 11
327.78999999999996
 21
197.94
  0
LINE
  8
_0-0_
  6
CONTINUOUS
 62
    7
 10
326.51999999999998
 20
197.94
 11
327.78999999999996
 21
195.40000000000001
  0
LINE
  8
_0-0_
  6
CONTINUOUS
 62
    7
 10
327.78999999999996
 20
195.40000000000001
 11
330.32999999999998
 21
193.495
  0
LINE
  8
_0-0_
  6
CONTINUOUS
 62
    7
 10
330.30500000000001
 20
188.995
 11
329.06
 21
189.36750000000001
  0
LINE
  8
_0-0_
  6
CONTINUOUS
 62
    7
 10
329.06
 20
189.36750000000001
 11
327.47249999999997
 21
189.36750000000001
  0
LINE
  8
_0-0_
  6
CONTINUOUS
 62
    7
 10
327.47249999999997
 20
189.36750000000001
 11
326.51999999999998
 21
190.31999999999999
  0
LINE
  8
_0-0_
  6
CONTINUOUS
 62
    7
 10
330.30500000000001
 20
190.495
 11
329.06
 21
190.63749999999999
  0
LINE
  8
_0-0_
  6
CONTINUOUS
 62
    7
 10
326.51999999999998
 20
192.86000000000001
 11
327.78999999999996
 21
191.59
  0
LINE
  8
_0-0_
  6
CONTINUOUS
 62
    7
 10
327.78999999999996
 20
191.59
 11
329.06
 21
190.63749999999999
  0
LINE
  8
_0-1_
  6
CONTINUOUS
 62
    7
 10
326.51999999999998
 20
199.20999999999998
 11
327.15499999999997
 21
198.25749999999999
  0
LINE
  8
_0-1_
  6
CONTINUOUS
 62
    7
 10
327.15499999999997
 20
198.25749999999999
 11
327.78999999999996
 21
196.35249999999999
  0
LINE
  8
_0-1_
  6
CONTINUOUS
 62
    7
 10
328.42500000000001
 20
197.6225
 11
328.42500000000001
 21
199.845
  0
LINE
  8
_0-1_
  6
CONTINUOUS
 62
    7
 10
328.42500000000001
 20
199.845
 11
326.51999999999998
 21
201.75
  0
LINE
  8
_0-1_
  6
CONTINUOUS
 62
    7
 10
326.51999999999998
 20
204.28999999999999
 11
327.78999999999996
 21
204.28999999999999
  0
LINE
  8
_0-1_
  6
CONTINUOUS
 62
    7
 10
326.51999999999998
 20
196.67000000000002
 11
327.78999999999996
 21
194.44749999999999
  0
LINE
  8
_0-1_
  6
CONTINUOUS
 62
    7
 10
327.78999999999996
 20
192.54250000000002
 11
326.51999999999998
 21
194.13
  0
LINE
  8
_0-1_
  6
CONTINUOUS
 62
    7
 10
327.78999999999996
 20
190.31999999999999
 11
326.51999999999998
 21
191.59
  0
LINE
  8
_0-1_
  6
CONTINUOUS
 62
    7
 10
326.51999999999998
 20
189.05000000000001
 11
327.78999999999996
 21
188.41499999999999
  0
LINE
  8
_0-1_
  6
CONTINUOUS
 62
    7
 10
327.78999999999996
 20
188.41499999999999
 11
330.32999999999998
 21
188.41499999999999
  0
LINE
  8
_0-1_
  6
CONTINUOUS
 62
    7
 10
330.32999999999998
 20
188.41499999999999
 11
331.60000000000002
 21
188.41499999999999
  0
LINE
  8
_0-1_
  6
CONTINUOUS
 62
    7
 10
329.06
 20
186.82749999999999
 11
325.25
 21
186.82749999999999
  0
POINT
  8
_0-0_
 62
    7
 10
339.22000000000003
 20
185.24000000000001
  0
LINE
  8
_0-0_
  6
CONTINUOUS
 62
    7
 10
330.22000000000003
 20
185.24000000000001
 11
348.22000000000003
 21
185.24000000000001
  0
LINE
  8
_0-0_
  6
CONTINUOUS
 62
    7
 10
330.22000000000003
 20
185.24000000000001
 11
330.22000000000003
 21
205.24000000000001
  0
LINE
  8
_0-0_
  6
CONTINUOUS
 62
    7
 10
348.22000000000003
 20
185.24000000000001
 11
348.22000000000003
 21
205.24000000000001
  0
LINE
  8
_0-0_
  6
CONTINUOUS
 62
    7
 10
330.22000000000003
 20
205.24000000000001
 11
348.22000000000003
 21
205.24000000000001
  0
POINT
  8
_0-0_
 62
    7
 10
339.22000000000003
 20
205.24000000000001
  0
POINT
  8
_0-0_
 62
    7
 10
330.22000000000003
 20
197.99000000000001
  0
POINT
  8
_0-0_
 62
    7
 10
330.22000000000003
 20
196.49000000000001
  0
POINT
  8
_0-0_
 62
    7
 10
330.22000000000003
 20
194.99000000000001
  0
POINT
  8
_0-0_
 62
    7
 10
330.22000000000003
 20
193.49000000000001
  0
POINT
  8
_0-0_
 62
    7
 10
330.22000000000003
 20
191.99000000000001
  0
POINT
  8
_0-0_
 62
    7
 10
330.22000000000003
 20
190.49000000000001
  0
POINT
  8
_0-0_
 62
    7
 10
330.22000000000003
 20
188.99000000000001
  0
POINT
  8
_0-0_
 62
    7
 10
330.22000000000003
 20
187.49000000000001
  0
POINT
  8
_0-0_
 62
    7
 10
330.22000000000003
 20
185.99000000000001
  0
POINT
  8
_0-0_
 62
    7
 10
348.22000000000003
 20
185.99000000000001
  0
POINT
  8
_0-0_
 62
    7
 10
348.22000000000003
 20
187.49000000000001
  0
POINT
  8
_0-0_
 62
    7
 10
348.22000000000003
 20
188.99000000000001
  0
POINT
  8
_0-0_
 62
    7
 10
348.22000000000003
 20
190.49000000000001
  0
POINT
  8
_0-0_
 62
    7
 10
348.22000000000003
 20
191.99000000000001
  0
POINT
  8
_0-0_
 62
    7
 10
348.22000000000003
 20
193.49000000000001
  0
POINT
  8
_0-0_
 62
    7
 10
348.22000000000003
 20
194.99000000000001
  0
POINT
  8
_0-0_
 62
    7
 10
348.22000000000003
 20
196.49000000000001
  0
POINT
  8
_0-0_
 62
    7
 10
348.22000000000003
 20
197.99000000000001
  0
LINE
  8
_0-0_
  6
CONTINUOUS
 62
    7
 10
339.22000000000003
 20
205.24000000000001
 11
339.22000000000003
 21
185.24000000000001
  0
LINE
  8
_0-1_
  6
CONTINUOUS
 62
    7
 10
353.19
 20
189.05000000000001
 11
351.92000000000002
 21
189.05000000000001
  0
LINE
  8
_0-1_
  6
CONTINUOUS
 62
    7
 10
351.92000000000002
 20
191.59
 11
353.19
 21
191.59
  0
LINE
  8
_0-1_
  6
CONTINUOUS
 62
    7
 10
351.92000000000002
 20
194.13
 11
353.19
 21
194.13
  0
LINE
  8
_0-1_
  6
CONTINUOUS
 62
    7
 10
351.92000000000002
 20
196.67000000000002
 11
353.19
 21
196.67000000000002
  0
LINE
  8
_0-1_
  6
CONTINUOUS
 62
    7
 10
351.92000000000002
 20
199.20999999999998
 11
353.19
 21
199.20999999999998
  0
LINE
  8
_0-1_
  6
CONTINUOUS
 62
    7
 10
353.19
 20
204.28999999999999
 11
351.92000000000002
 21
204.28999999999999
  0
LINE
  8
_0-1_
  6
CONTINUOUS
 62
    7
 10
351.92000000000002
 20
201.75
 11
353.19
 21
201.75
  0
LINE
  8
_0-1_
  6
CONTINUOUS
 62
    7
 10
351.92000000000002
 20
199.20999999999998
 11
351.28499999999997
 21
198.25749999999999
  0
LINE
  8
_0-1_
  6
CONTINUOUS
 62
    7
 10
351.28499999999997
 20
198.25749999999999
 11
350.64999999999998
 21
196.35249999999999
  0
LINE
  8
_0-1_
  6
CONTINUOUS
 62
    7
 10
350.01499999999999
 20
197.6225
 11
350.01499999999999
 21
199.845
  0
LINE
  8
_0-1_
  6
CONTINUOUS
 62
    7
 10
350.01499999999999
 20
199.845
 11
351.92000000000002
 21
201.75
  0
LINE
  8
_0-1_
  6
CONTINUOUS
 62
    7
 10
351.92000000000002
 20
204.28999999999999
 11
350.64999999999998
 21
204.28999999999999
  0
LINE
  8
_0-1_
  6
CONTINUOUS
 62
    7
 10
351.92000000000002
 20
196.67000000000002
 11
350.64999999999998
 21
194.44749999999999
  0
LINE
  8
_0-1_
  6
CONTINUOUS
 62
    7
 10
350.64999999999998
 20
192.54250000000002
 11
351.92000000000002
 21
194.13
  0
LINE
  8
_0-1_
  6
CONTINUOUS
 62
    7
 10
350.64999999999998
 20
190.31999999999999
 11
351.92000000000002
 21
191.59
  0
LINE
  8
_0-1_
  6
CONTINUOUS
 62
    7
 10
351.92000000000002
 20
189.05000000000001
 11
350.64999999999998
 21
188.41499999999999
  0
LINE
  8
_0-1_
  6
CONTINUOUS
 62
    7
 10
349.38
 20
186.82749999999999
 11
353.19
 21
186.82749999999999
  0
LINE
  8
_0-1_
  6
CONTINUOUS
 62
    7
 10
346.84000000000003
 20
185.24000000000001
 11
349.38
 21
183.97
  0
LINE
  8
_0-2_
  6
CONTINUOUS
 62
    7
 10
325.25
 20
206.82999999999998
 11
353.19
 21
206.82999999999998
  0
LINE
  8
_0-2_
  6
CONTINUOUS
 62
    7
 10
353.19
 20
206.82999999999998
 11
353.19
 21
183.97
  0
LINE
  8
_0-2_
  6
CONTINUOUS
 62
    7
 10
353.19
 20
183.97
 11
325.25
 21
183.97
  0
LINE
  8
_0-2_
  6
CONTINUOUS
 62
    7
 10
325.25
 20
183.97
 11
325.25
 21
206.82999999999998
  0
POINT
  8
_0-2_
 62
    7
 10
351.92000000000002
 20
205.56
  0
POINT
  8
_0-2_
 62
    7
 10
351.92000000000002
 20
203.01999999999998
  0
POINT
  8
_0-2_
 62
    7
 10
351.92000000000002
 20
200.48000000000002
  0
POINT
  8
_0-2_
 62
    7
 10
351.92000000000002
 20
197.94
  0
POINT
  8
_0-2_
 62
    7
 10
351.92000000000002
 20
195.40000000000001
  0
POINT
  8
_0-2_
 62
    7
 10
351.92000000000002
 20
192.86000000000001
  0
POINT
  8
_0-2_
 62
    7
 10
351.92000000000002
 20
190.31999999999999
  0
POINT
  8
_0-2_
 62
    7
 10
351.92000000000002
 20
187.78
  0
POINT
  8
_0-2_
 62
    7
 10
351.92000000000002
 20
185.24000000000001
  0
LINE
  8
_0-1_
  6
CONTINUOUS
 62
    7
 10
346.84000000000003
 20
185.24000000000001
 11
346.84000000000003
 21
189.685
  0
POINT
  8
_0-2_
 62
    7
 10
326.51999999999998
 20
205.56
  0
POINT
  8
_0-2_
 62
    7
 10
326.51999999999998
 20
203.01999999999998
  0
POINT
  8
_0-2_
 62
    7
 10
326.51999999999998
 20
200.48000000000002
  0
POINT
  8
_0-2_
 62
    7
 10
326.51999999999998
 20
197.94
  0
POINT
  8
_0-2_
 62
    7
 10
326.51999999999998
 20
195.40000000000001
  0
POINT
  8
_0-2_
 62
    7
 10
326.51999999999998
 20
192.86000000000001
  0
POINT
  8
_0-2_
 62
    7
 10
326.51999999999998
 20
190.31999999999999
  0
POINT
  8
_0-2_
 62
    7
 10
326.51999999999998
 20
187.78
  0
POINT
  8
_0-2_
 62
    7
 10
326.51999999999998
 20
185.24000000000001
  0
LINE
  8
_0-1_
  6
CONTINUOUS
 62
    7
 10
330.22000000000003
 20
197.24000000000001
 11
331.60000000000002
 21
197.24000000000001
  0
LINE
  8
_0-1_
  6
CONTINUOUS
 62
    7
 10
330.22000000000003
 20
195.74000000000001
 11
331.60000000000002
 21
195.74000000000001
  0
LINE
  8
_0-1_
  6
CONTINUOUS
 62
    7
 10
330.22000000000003
 20
194.24000000000001
 11
331.60000000000002
 21
194.24000000000001
  0
LINE
  8
_0-1_
  6
CONTINUOUS
 62
    7
 10
330.22000000000003
 20
192.74000000000001
 11
331.60000000000002
 21
192.74000000000001
  0
LINE
  8
_0-1_
  6
CONTINUOUS
 62
    7
 10
330.22000000000003
 20
191.24000000000001
 11
331.60000000000002
 21
191.24000000000001
  0
LINE
  8
_0-1_
  6
CONTINUOUS
 62
    7
 10
330.22000000000003
 20
186.74000000000001
 11
331.60000000000002
 21
186.74000000000001
  0
LINE
  8
_0-1_
  6
CONTINUOUS
 62
    7
 10
329.06
 20
186.82749999999999
 11
330.22000000000003
 21
186.74000000000001
  0
LINE
  8
_0-1_
  6
CONTINUOUS
 62
    7
 10
331.60000000000002
 20
186.74000000000001
 11
331.60000000000002
 21
204.28999999999999
  0
LINE
  8
_0-1_
  6
CONTINUOUS
 62
    7
 10
327.78999999999996
 20
192.54250000000002
 11
330.22000000000003
 21
191.24000000000001
  0
LINE
  8
_0-1_
  6
CONTINUOUS
 62
    7
 10
327.78999999999996
 20
194.44749999999999
 11
330.22000000000003
 21
192.74000000000001
  0
LINE
  8
_0-1_
  6
CONTINUOUS
 62
    7
 10
330.22000000000003
 20
189.74000000000001
 11
331.60000000000002
 21
189.74000000000001
  0
LINE
  8
_0-1_
  6
CONTINUOUS
 62
    7
 10
330.22000000000003
 20
189.74000000000001
 11
327.78999999999996
 21
190.31999999999999
  0
LINE
  8
_0-1_
  6
CONTINUOUS
 62
    7
 10
327.78999999999996
 20
196.35249999999999
 11
330.22000000000003
 21
194.24000000000001
  0
LINE
  8
_0-1_
  6
CONTINUOUS
 62
    7
 10
328.42500000000001
 20
197.6225
 11
330.22000000000003
 21
195.74000000000001
  0
LINE
  8
_0-1_
  6
CONTINUOUS
 62
    7
 10
329.3775
 20
197.94
 11
330.22000000000003
 21
197.24000000000001
  0
LINE
  8
_0-1_
  6
CONTINUOUS
 62
    7
 10
329.3775
 20
197.94
 11
329.3775
 21
202.70249999999999
  0
LINE
  8
_0-1_
  6
CONTINUOUS
 62
    7
 10
327.78999999999996
 20
204.28999999999999
 11
329.3775
 21
202.70249999999999
  0
LINE
  8
_0-1_
  6
CONTINUOUS
 62
    7
 10
349.0625
 20
198.25749999999999
 11
349.0625
 21
202.70249999999999
  0
LINE
  8
_0-1_
  6
CONTINUOUS
 62
    7
 10
350.64999999999998
 20
204.28999999999999
 11
349.0625
 21
202.70249999999999
  0
LINE
  8
_0-1_
  6
CONTINUOUS
 62
    7
 10
348.22000000000003
 20
186.74000000000001
 11
346.84000000000003
 21
186.74000000000001
  0
LINE
  8
_0-1_
  6
CONTINUOUS
 62
    7
 10
348.22000000000003
 20
189.74000000000001
 11
346.84000000000003
 21
189.74000000000001
  0
LINE
  8
_0-1_
  6
CONTINUOUS
 62
    7
 10
348.22000000000003
 20
192.74000000000001
 11
346.84000000000003
 21
192.74000000000001
  0
LINE
  8
_0-1_
  6
CONTINUOUS
 62
    7
 10
348.22000000000003
 20
194.24000000000001
 11
346.84000000000003
 21
194.24000000000001
  0
LINE
  8
_0-1_
  6
CONTINUOUS
 62
    7
 10
348.22000000000003
 20
195.74000000000001
 11
346.84000000000003
 21
195.74000000000001
  0
LINE
  8
_0-1_
  6
CONTINUOUS
 62
    7
 10
348.22000000000003
 20
197.24000000000001
 11
346.84000000000003
 21
197.24000000000001
  0
LINE
  8
_0-1_
  6
CONTINUOUS
 62
    7
 10
348.22000000000003
 20
186.74000000000001
 11
349.38
 21
186.82749999999999
  0
LINE
  8
_0-1_
  6
CONTINUOUS
 62
    7
 10
348.22000000000003
 20
188.24000000000001
 11
350.64999999999998
 21
188.41499999999999
  0
LINE
  8
_0-1_
  6
CONTINUOUS
 62
    7
 10
348.22000000000003
 20
189.74000000000001
 11
350.64999999999998
 21
190.31999999999999
  0
LINE
  8
_0-1_
  6
CONTINUOUS
 62
    7
 10
348.22000000000003
 20
191.24000000000001
 11
346.84000000000003
 21
191.24000000000001
  0
LINE
  8
_0-1_
  6
CONTINUOUS
 62
    7
 10
350.64999999999998
 20
192.54250000000002
 11
348.22000000000003
 21
191.24000000000001
  0
LINE
  8
_0-1_
  6
CONTINUOUS
 62
    7
 10
346.84000000000003
 20
191.27249999999998
 11
346.84000000000003
 21
197.24000000000001
  0
LINE
  8
_0-1_
  6
CONTINUOUS
 62
    7
 10
350.64999999999998
 20
194.44749999999999
 11
348.22000000000003
 21
192.74000000000001
  0
LINE
  8
_0-1_
  6
CONTINUOUS
 62
    7
 10
348.22000000000003
 20
194.24000000000001
 11
350.64999999999998
 21
196.35249999999999
  0
LINE
  8
_0-1_
  6
CONTINUOUS
 62
    7
 10
348.22000000000003
 20
195.74000000000001
 11
350.01499999999999
 21
197.6225
  0
LINE
  8
_0-1_
  6
CONTINUOUS
 62
    7
 10
348.22000000000003
 20
197.24000000000001
 11
349.0625
 21
198.25749999999999
  0
LINE
  8
_0-1_
  6
CONTINUOUS
 62
    7
 10
346.84000000000003
 20
191.27249999999998
 11
346.84000000000003
 21
191.24000000000001
  0
LINE
  8
_0-1_
  6
CONTINUOUS
 62
    7
 10
346.84000000000003
 20
189.74000000000001
 11
346.84000000000003
 21
189.685
  0
ENDSEC
  0
EOF
